<svg id="Calque_12_Image" data-name="Calque 12 Image" xmlns="http://www.w3.org/2000/svg" viewBox="0 0 122.59 93.92"><defs><style>.cls-1{fill:#1a295c;}.cls-2{fill:#1a295d;}.cls-3{fill:#19285c;}.cls-4{fill:#aab9fe;}.cls-5{fill:#aabafe;}.cls-6{fill:#abbafe;}.cls-7{fill:#abbbfe;}</style></defs><path class="cls-1" d="M14.43,45.57c0-14.85,0-25.66,0-27.43a3,3,0,0,1,.29-1.38,4.24,4.24,0,0,1,2.57-1.91c3.4-1.13,8.77,0,8.77,0,8.14,1.71,12.26,2.63,15.54,4.08a36.31,36.31,0,0,1,12,8.51c.67.71,1.26,1.5,1.89,2.25-1.08,2.41-2,4.82-1.42,7.57a13.34,13.34,0,0,0,3.83,7.38c0,3.4,0,6.79,0,10.19a7.53,7.53,0,0,1-1-.45c-7-4.58-14-9.13-20.92-13.77a14,14,0,0,0-7.64-2.5,16.37,16.37,0,0,0-10.86,3.75A15.12,15.12,0,0,0,14.43,45.57Z" transform="translate(-0.02 -14.35)"/><path class="cls-2" d="M78.38,20.38a49.74,49.74,0,0,1,7.09-3.08A70.31,70.31,0,0,1,95.16,15c1.38-.24,2.63-.37,2.63-.37l1.27-.1c1.16-.07,2.32-.06,2.32-.06a15.38,15.38,0,0,1,3.44.2c.16.05,2.65.85,3.28,2.85a2.62,2.62,0,0,1,.14.79q0,14.94,0,29.87a2.79,2.79,0,0,1-1.22-.68,14.49,14.49,0,0,0-8.47-2.61A17.08,17.08,0,0,0,90,47.58C83,51.62,76,55.39,69,59.37c-1.5.85-2.79,1.56-4.29.2,0-3.71,0-7.43,0-11.14a18.41,18.41,0,0,0,6.74-.12,19.59,19.59,0,0,0,11-7A14.84,14.84,0,0,0,86,34.14,13.49,13.49,0,0,0,78.38,20.38Z" transform="translate(-0.02 -14.35)"/><path class="cls-3" d="M0,32.6c1.41-3.22,4.24-3.2,7.11-3.11.4,0,.59.12.56.54a7.85,7.85,0,0,0,0,.84V84.09a11.28,11.28,0,0,0,3.13,8.15,11.11,11.11,0,0,0,3.72,2.56,11.29,11.29,0,0,0,3.15.78c4,.49,7.59.83,9.66,1q4,.65,8.1,1.69l.29.07c-.34,2.23-.69,4.46-1,6.69-2.35,0-4.71,0-7.05.07-3.33.13-6.64.51-10,.89-4.22.49-8.35,1.36-12.51,2.16-1.81.35-3.86-.26-5.16-3.07Z" transform="translate(-0.02 -14.35)"/><path class="cls-4" d="M14.43,45.57a15.12,15.12,0,0,1,3.13-3.72A16.37,16.37,0,0,1,28.42,38.1a14,14,0,0,1,7.64,2.5C43,45.24,50,49.79,57,54.37a7.53,7.53,0,0,0,1,.45q0,21.51,0,43v5.59c-1.1-1-2.05-1.83-3-2.67a47.09,47.09,0,0,0-17.61-9.24,4.33,4.33,0,0,0-.71-.1c.45-3.2.88-6.41,1.37-9.61a1.24,1.24,0,0,0-.63-1.45c-4.33-2.86-8.66-5.73-12.91-8.71-3-2.12-6.42-3.8-9-6.61-.33-.36-.49-.91-1.05-1Q14.42,54.78,14.43,45.57Z" transform="translate(-0.02 -14.35)"/><path class="cls-2" d="M87.73,91a30,30,0,0,1,.61-5.08c.18-.87.68-2.48.77-2.89a4,4,0,0,1,.53-1.54,5.92,5.92,0,0,1,2-2c3.05-2.09,9.08-5.21,15-8.8l1.59-1c0,5.14,0,10.29,0,15.43a4.2,4.2,0,0,1-4.15,3.93,81.34,81.34,0,0,0-15.71,1.79C88.3,90.89,87.8,90.92,87.73,91Z" transform="translate(-0.02 -14.35)"/><path class="cls-4" d="M64.73,59.57c1.5,1.36,2.79.65,4.29-.2,7-4,14-7.75,20.94-11.79a17.08,17.08,0,0,1,8.57-2.74A14.49,14.49,0,0,1,107,47.45a2.79,2.79,0,0,0,1.22.68V69.72l-1.55,1c-6.06,3.77-9.09,5.65-10.69,6.39a41.54,41.54,0,0,0-3.9,2.23,6.68,6.68,0,0,0-1.94,1.6,6.31,6.31,0,0,0-1,2.16A51.09,51.09,0,0,0,87.73,91a47.07,47.07,0,0,0-7.67,2.41s-4,1.73-14.73,9.54Z" transform="translate(-0.02 -14.35)"/><path class="cls-3" d="M86.89,98.36c.57-.21,1.4-.51,2.42-.81A40.76,40.76,0,0,1,99,95.93a43.31,43.31,0,0,0,6.25-.35,12.32,12.32,0,0,0,5.57-2.43,10.57,10.57,0,0,0,3.77-5.94,12.69,12.69,0,0,0,.41-3q0-26.73,0-53.45c0-1.07.26-1.33,1.3-1.28,1.64.07,3.28,0,4.73,1a3.58,3.58,0,0,1,1.64,3.06q0,35.34,0,70.67c0,2.6-2.83,4.55-5.49,3.95-3.9-.89-7.85-1.52-11.81-2.11-6.41-.94-12.84-.91-19.28-1C86.32,102.83,86.6,100.6,86.89,98.36Z" transform="translate(-0.02 -14.35)"/><path class="cls-5" d="M78.38,20.38A13.49,13.49,0,0,1,86,34.14a14.84,14.84,0,0,1-3.49,7.18,19.59,19.59,0,0,1-11,7,18.41,18.41,0,0,1-6.74.12c0-4.42,0-8.85,0-13.27,0-2.23,1.34-3.81,2.56-5.38A34.05,34.05,0,0,1,78.38,20.38Z" transform="translate(-0.02 -14.35)"/><path class="cls-2" d="M14.42,64c.56.13.72.68,1.05,1,2.55,2.81,5.93,4.49,9,6.61,4.25,3,8.58,5.85,12.91,8.71A1.24,1.24,0,0,1,38,81.8c-.49,3.2-.92,6.41-1.37,9.61a75.33,75.33,0,0,0-11.48-1.9c-2.28-.11-4.55-.34-6.83-.43a4.18,4.18,0,0,1-3.9-3.81C14.38,78.17,14.41,71.08,14.42,64Z" transform="translate(-0.02 -14.35)"/><path class="cls-6" d="M34.7,105.05c.34-2.23.69-4.46,1-6.69a27.05,27.05,0,0,1,7,2.53A35.89,35.89,0,0,1,50.63,106a2.71,2.71,0,0,1,.83.79A82.94,82.94,0,0,0,34.7,105.05Z" transform="translate(-0.02 -14.35)"/><path class="cls-6" d="M86.89,98.36c-.29,2.24-.57,4.47-.86,6.7a73.92,73.92,0,0,0-14.87,2,7.85,7.85,0,0,1,1.6-1.69,19.49,19.49,0,0,1,1.77-1.28c3-1.91,2.56-1.74,3.47-2.25a37.14,37.14,0,0,1,7.37-3Z" transform="translate(-0.02 -14.35)"/><path class="cls-7" d="M57.91,44.63a13.34,13.34,0,0,1-3.83-7.38c-.59-2.75.34-5.16,1.42-7.57a13.46,13.46,0,0,1,1.18,1.91,9.87,9.87,0,0,1,1.27,4C57.94,38.59,57.92,41.61,57.91,44.63Z" transform="translate(-0.02 -14.35)"/></svg>