<svg id="Calque_1" data-name="Calque 1" xmlns="http://www.w3.org/2000/svg" viewBox="0 0 495.5 88.97">
    <defs>
        <style>.cls-1{fill:#1a295c;}.cls-2,.cls-8{fill:#1a295d;}.cls-3{fill:#19285c;}.cls-4,.cls-9{fill:#aab9fe;}.cls-5{fill:#aabafe;}.cls-6{fill:#abbafe;}.cls-7{fill:#abbbfe;}.cls-8{font-size:61px;font-family:Poppins-Bold, Poppins;font-weight:700;}.cls-9{letter-spacing:0em;}</style>
    </defs>
    <path class="cls-1" d="M66.22,69.81V53.53a1.78,1.78,0,0,1,.17-.82,2.51,2.51,0,0,1,1.52-1.13,12.33,12.33,0,0,1,5.21,0c4.83,1,7.28,1.56,9.23,2.42a21.56,21.56,0,0,1,7.12,5c.4.42.75.89,1.12,1.34a7.14,7.14,0,0,0-.84,4.49A7.87,7.87,0,0,0,92,69.26v6a3.24,3.24,0,0,1-.6-.27c-4.15-2.71-8.31-5.42-12.42-8.17a8.36,8.36,0,0,0-4.54-1.49A9.71,9.71,0,0,0,68,67.61,8.9,8.9,0,0,0,66.22,69.81Z" transform="translate(-57.65 -49.32)" />
    <path class="cls-2" d="M104.18,54.86A30.11,30.11,0,0,1,108.39,53a42.3,42.3,0,0,1,5.76-1.37c.82-.14,1.56-.22,1.56-.22l.75,0c.69,0,1.38,0,1.38,0a8.71,8.71,0,0,1,2,.12,3.08,3.08,0,0,1,2,1.69,1.5,1.5,0,0,1,.08.47V71.36a1.65,1.65,0,0,1-.72-.4,8.6,8.6,0,0,0-5-1.55,10.11,10.11,0,0,0-5.08,1.6c-4.15,2.4-8.31,4.63-12.46,7-.9.5-1.66.92-2.55.12V71.51a11,11,0,0,0,4-.07,11.59,11.59,0,0,0,6.53-4.16A8.77,8.77,0,0,0,108.71,63,8,8,0,0,0,104.18,54.86Z" transform="translate(-57.65 -49.32)" />
    <path class="cls-3" d="M57.65,62.11c.84-1.91,2.52-1.9,4.22-1.84.24,0,.35.07.33.32a4.17,4.17,0,0,0,0,.5V92.68a6.74,6.74,0,0,0,1.86,4.84A6.57,6.57,0,0,0,66.27,99a6.76,6.76,0,0,0,1.87.47c2.37.29,4.51.49,5.74.59,1.58.26,3.18.59,4.8,1l.18,0c-.21,1.33-.41,2.65-.6,4-1.39,0-2.79,0-4.18,0-2,.08-4,.3-5.94.53-2.51.29-5,.8-7.43,1.28a2.69,2.69,0,0,1-3.06-1.82Z" transform="translate(-57.65 -49.32)" />
    <path class="cls-4" d="M66.22,69.81a8.87,8.87,0,0,1,1.85-2.2,9.71,9.71,0,0,1,6.45-2.23,8.38,8.38,0,0,1,4.54,1.48c4.12,2.76,8.27,5.46,12.43,8.18a6.28,6.28,0,0,0,.59.27v28.84c-.65-.59-1.21-1.08-1.78-1.58a28.08,28.08,0,0,0-10.45-5.49,3,3,0,0,0-.42-.06c.26-1.9.52-3.8.81-5.7a.74.74,0,0,0-.37-.86c-2.58-1.7-5.15-3.4-7.67-5.17C70.42,84,68.39,83,66.86,81.36c-.2-.21-.29-.54-.63-.59C66.22,77.11,66.21,73.46,66.22,69.81Z" transform="translate(-57.65 -49.32)" />
    <path class="cls-2" d="M109.74,96.79a17,17,0,0,1,.36-3c.1-.52.4-1.47.45-1.72a2.48,2.48,0,0,1,.32-.91A3.48,3.48,0,0,1,112.06,90c1.81-1.24,5.39-3.09,8.9-5.22l1-.6V93.3a2.5,2.5,0,0,1-2.47,2.33,48.67,48.67,0,0,0-9.32,1.06C110.07,96.72,109.78,96.74,109.74,96.79Z" transform="translate(-57.65 -49.32)" />
    <path class="cls-4" d="M96.08,78.13c.89.8,1.66.38,2.55-.12,4.15-2.38,8.31-4.6,12.43-7a10.15,10.15,0,0,1,5.09-1.63,8.64,8.64,0,0,1,5,1.55,1.65,1.65,0,0,0,.72.4V84.15l-.92.6c-3.6,2.23-5.4,3.35-6.35,3.79a26.44,26.44,0,0,0-2.31,1.32,4.06,4.06,0,0,0-1.15,1,3.9,3.9,0,0,0-.6,1.29,29.71,29.71,0,0,0-.83,4.69,27.09,27.09,0,0,0-4.56,1.43s-2.37,1-8.74,5.66Z" transform="translate(-57.65 -49.32)" />
    <path class="cls-3" d="M109.24,101.16c.34-.13.83-.31,1.43-.48a24,24,0,0,1,5.76-1,27.05,27.05,0,0,0,3.71-.2,7.33,7.33,0,0,0,3.3-1.45,6.24,6.24,0,0,0,2.24-3.52,7.72,7.72,0,0,0,.25-1.78V61c0-.63.15-.79.77-.76a5,5,0,0,1,2.81.59,2.15,2.15,0,0,1,1,1.82v42a2.64,2.64,0,0,1-3.26,2.34c-2.31-.52-4.66-.9-7-1.25a86,86,0,0,0-11.45-.59C108.9,103.81,109.06,102.49,109.24,101.16Z" transform="translate(-57.65 -49.32)" />
    <path class="cls-5" d="M104.18,54.86A8,8,0,0,1,108.71,63a8.87,8.87,0,0,1-2.07,4.26,11.67,11.67,0,0,1-6.53,4.16,11,11,0,0,1-4,.07V63.64a5.24,5.24,0,0,1,1.52-3.19A20.17,20.17,0,0,1,104.18,54.86Z" transform="translate(-57.65 -49.32)" />
    <path class="cls-2" d="M66.21,80.76c.33.07.43.4.62.59C68.35,83,70.35,84,72.18,85.27c2.52,1.79,5.09,3.48,7.66,5.18a.73.73,0,0,1,.37.87c-.29,1.9-.55,3.81-.81,5.71a44.93,44.93,0,0,0-6.82-1.13c-1.35-.06-2.7-.2-4-.25a2.49,2.49,0,0,1-2.32-2.27C66.19,89.17,66.2,85,66.21,80.76Z" transform="translate(-57.65 -49.32)" />
    <path class="cls-6" d="M78.25,105.13c.2-1.33.41-2.65.59-4a15.81,15.81,0,0,1,4.16,1.5,21.39,21.39,0,0,1,4.71,3,1.69,1.69,0,0,1,.49.47A48.92,48.92,0,0,0,78.25,105.13Z" transform="translate(-57.65 -49.32)" />
    <path class="cls-6" d="M109.24,101.16c-.18,1.33-.34,2.65-.51,4a44.46,44.46,0,0,0-8.83,1.19,4.29,4.29,0,0,1,.95-1,10,10,0,0,1,1.05-.76c1.78-1.14,1.52-1,2.06-1.34a22.39,22.39,0,0,1,4.37-1.78Z" transform="translate(-57.65 -49.32)" />
    <path class="cls-7" d="M92,69.26a7.94,7.94,0,0,1-2.27-4.39,7.08,7.08,0,0,1,.84-4.49,8.83,8.83,0,0,1,.7,1.13,5.73,5.73,0,0,1,.75,2.38C92.05,65.67,92,67.46,92,69.26Z" transform="translate(-57.65 -49.32)" />
    <text class="cls-8" transform="translate(109.8 52)">
        Caf
        <tspan class="cls-9" x="109.86" y="0">Learning</tspan>
    </text>
    <style>
        @font-face {
            font-family: 'Poppins';
            src: url('../fonts/Poppins/Poppins-Bold.ttf');
            }
    </style>
</svg>